<?xml version="1.0" encoding="UTF-8" standalone="no"?>
<!DOCTYPE svg PUBLIC "-//W3C//DTD SVG 1.1//EN"
 "http://www.w3.org/Graphics/SVG/1.1/DTD/svg11.dtd">
<!-- Generated by graphviz version 8.0.1 (20230327.1645)
 -->
<!-- Title: FST Pages: 1 -->
<svg width="73pt" height="792pt"
 viewBox="0.00 0.00 73.44 792.00" xmlns="http://www.w3.org/2000/svg" xmlns:xlink="http://www.w3.org/1999/xlink">
<g id="graph0" class="graph" transform="scale(0.371656 0.371656) rotate(0) translate(4 2127)">
<title>FST</title>
<polygon fill="white" stroke="none" points="-4,4 -4,-2127 193.59,-2127 193.59,4 -4,4"/>
<!-- 0 -->
<g id="node1" class="node">
<title>0</title>
<ellipse fill="none" stroke="black" stroke-width="2" cx="94.75" cy="-22" rx="18" ry="18"/>
<ellipse fill="none" stroke="black" stroke-width="2" cx="94.75" cy="-22" rx="22" ry="22"/>
<text text-anchor="middle" x="94.75" y="-18.3" font-family="Times,serif" font-size="14.00">0</text>
</g>
<!-- 0&#45;&gt;0 -->
<g id="edge1" class="edge">
<title>0&#45;&gt;0</title>
<path fill="none" stroke="black" d="M93.27,-44.21C93.15,-53.8 93.64,-62 94.75,-62 95.39,-62 95.83,-59.26 96.06,-55.09"/>
<polygon fill="black" stroke="black" points="99.57,-55.27 96.23,-45.21 92.57,-55.15 99.57,-55.27"/>
<text text-anchor="middle" x="94.75" y="-65.8" font-family="Times,serif" font-size="14.00">a:a</text>
</g>
<!-- 0&#45;&gt;0 -->
<g id="edge2" class="edge">
<title>0&#45;&gt;0</title>
<path fill="none" stroke="black" d="M92.15,-44.32C91.15,-61.93 92.01,-80 94.75,-80 96.93,-80 97.92,-68.53 97.72,-54.95"/>
<polygon fill="black" stroke="black" points="101.2,-55.19 97.34,-45.32 94.2,-55.44 101.2,-55.19"/>
<text text-anchor="middle" x="94.75" y="-83.8" font-family="Times,serif" font-size="14.00">b:b</text>
</g>
<!-- 0&#45;&gt;0 -->
<g id="edge3" class="edge">
<title>0&#45;&gt;0</title>
<path fill="none" stroke="black" d="M91.41,-44.17C89.11,-69.2 90.23,-98 94.75,-98 98.64,-98 100,-76.73 98.85,-54.87"/>
<polygon fill="black" stroke="black" points="102.29,-54.9 98.09,-45.17 95.31,-55.4 102.29,-54.9"/>
<text text-anchor="middle" x="94.75" y="-101.8" font-family="Times,serif" font-size="14.00">c:c</text>
</g>
<!-- 0&#45;&gt;0 -->
<g id="edge4" class="edge">
<title>0&#45;&gt;0</title>
<path fill="none" stroke="black" d="M90.92,-43.71C87.07,-75.81 88.34,-116 94.75,-116 100.45,-116 102.09,-84.12 99.66,-54.47"/>
<polygon fill="black" stroke="black" points="103.06,-54.31 98.58,-44.71 96.09,-55.01 103.06,-54.31"/>
<text text-anchor="middle" x="94.75" y="-119.8" font-family="Times,serif" font-size="14.00">d:d</text>
</g>
<!-- 0&#45;&gt;0 -->
<g id="edge5" class="edge">
<title>0&#45;&gt;0</title>
<path fill="none" stroke="black" d="M90.48,-43.99C85.04,-82.79 86.47,-134 94.75,-134 102.29,-134 104.14,-91.58 100.32,-54.7"/>
<polygon fill="black" stroke="black" points="103.7,-54.5 99.02,-44.99 96.75,-55.34 103.7,-54.5"/>
<text text-anchor="middle" x="94.75" y="-137.8" font-family="Times,serif" font-size="14.00">e:e</text>
</g>
<!-- 0&#45;&gt;0 -->
<g id="edge6" class="edge">
<title>0&#45;&gt;0</title>
<path fill="none" stroke="black" d="M90.2,-43.74C83.01,-89.15 84.53,-152 94.75,-152 104.19,-152 106.2,-98.36 100.79,-54.38"/>
<polygon fill="black" stroke="black" points="104.15,-54.15 99.3,-44.74 97.22,-55.12 104.15,-54.15"/>
<text text-anchor="middle" x="94.75" y="-155.8" font-family="Times,serif" font-size="14.00">f:f</text>
</g>
<!-- 0&#45;&gt;0 -->
<g id="edge7" class="edge">
<title>0&#45;&gt;0</title>
<path fill="none" stroke="black" d="M89.91,-43.92C81,-95.8 82.61,-170 94.75,-170 106.08,-170 108.24,-105.33 101.22,-54.52"/>
<polygon fill="black" stroke="black" points="104.57,-54.27 99.59,-44.92 97.65,-55.34 104.57,-54.27"/>
<text text-anchor="middle" x="94.75" y="-173.8" font-family="Times,serif" font-size="14.00">g:g</text>
</g>
<!-- 0&#45;&gt;0 -->
<g id="edge8" class="edge">
<title>0&#45;&gt;0</title>
<path fill="none" stroke="black" d="M89.71,-43.85C78.98,-102.13 80.65,-188 94.75,-188 108.02,-188 110.28,-111.9 101.55,-54.36"/>
<polygon fill="black" stroke="black" points="104.89,-54.14 99.79,-44.85 97.99,-55.29 104.89,-54.14"/>
<text text-anchor="middle" x="94.75" y="-191.8" font-family="Times,serif" font-size="14.00">a:&lt;eps&gt;/1</text>
</g>
<!-- 0&#45;&gt;0 -->
<g id="edge9" class="edge">
<title>0&#45;&gt;0</title>
<path fill="none" stroke="black" d="M89.57,-43.66C76.96,-108.27 78.68,-206 94.75,-206 109.97,-206 112.32,-118.31 101.8,-54.14"/>
<polygon fill="black" stroke="black" points="105.13,-53.89 99.93,-44.66 98.24,-55.12 105.13,-53.89"/>
<text text-anchor="middle" x="94.75" y="-209.8" font-family="Times,serif" font-size="14.00">b:&lt;eps&gt;/1</text>
</g>
<!-- 0&#45;&gt;0 -->
<g id="edge10" class="edge">
<title>0&#45;&gt;0</title>
<path fill="none" stroke="black" d="M89.46,-43.46C74.94,-114.35 76.7,-224 94.75,-224 111.91,-224 114.35,-124.8 102.05,-54.11"/>
<polygon fill="black" stroke="black" points="105.33,-53.64 100.04,-44.46 98.45,-54.94 105.33,-53.64"/>
<text text-anchor="middle" x="94.75" y="-227.8" font-family="Times,serif" font-size="14.00">c:&lt;eps&gt;/1</text>
</g>
<!-- 0&#45;&gt;0 -->
<g id="edge11" class="edge">
<title>0&#45;&gt;0</title>
<path fill="none" stroke="black" d="M89.35,-43.38C72.93,-120.5 74.73,-242 94.75,-242 113.87,-242 116.37,-131.17 102.25,-54.03"/>
<polygon fill="black" stroke="black" points="105.52,-53.51 100.15,-44.38 98.65,-54.87 105.52,-53.51"/>
<text text-anchor="middle" x="94.75" y="-245.8" font-family="Times,serif" font-size="14.00">d:&lt;eps&gt;/1</text>
</g>
<!-- 0&#45;&gt;0 -->
<g id="edge12" class="edge">
<title>0&#45;&gt;0</title>
<path fill="none" stroke="black" d="M89.21,-43.53C70.92,-126.87 72.76,-260 94.75,-260 115.81,-260 118.39,-137.81 102.49,-54.27"/>
<polygon fill="black" stroke="black" points="105.72,-53.62 100.29,-44.53 98.86,-55.02 105.72,-53.62"/>
<text text-anchor="middle" x="94.75" y="-263.8" font-family="Times,serif" font-size="14.00">e:&lt;eps&gt;/1</text>
</g>
<!-- 0&#45;&gt;0 -->
<g id="edge13" class="edge">
<title>0&#45;&gt;0</title>
<path fill="none" stroke="black" d="M89.07,-43.73C68.91,-133.27 70.81,-278 94.75,-278 117.76,-278 120.4,-144.35 102.69,-54.46"/>
<polygon fill="black" stroke="black" points="105.92,-53.79 100.43,-44.73 99.07,-55.23 105.92,-53.79"/>
<text text-anchor="middle" x="94.75" y="-281.8" font-family="Times,serif" font-size="14.00">f:&lt;eps&gt;/1</text>
</g>
<!-- 0&#45;&gt;0 -->
<g id="edge14" class="edge">
<title>0&#45;&gt;0</title>
<path fill="none" stroke="black" d="M88.98,-43.73C66.9,-139.44 68.83,-296 94.75,-296 119.73,-296 122.42,-150.55 102.82,-54.34"/>
<polygon fill="black" stroke="black" points="106.06,-53.76 100.52,-44.73 99.22,-55.25 106.06,-53.76"/>
<text text-anchor="middle" x="94.75" y="-299.8" font-family="Times,serif" font-size="14.00">g:&lt;eps&gt;/1</text>
</g>
<!-- 0&#45;&gt;0 -->
<g id="edge15" class="edge">
<title>0&#45;&gt;0</title>
<path fill="none" stroke="black" d="M88.94,-43.55C64.89,-145.39 66.83,-314 94.75,-314 121.71,-314 124.44,-156.72 102.93,-54.22"/>
<polygon fill="black" stroke="black" points="106.15,-53.55 100.56,-44.55 99.31,-55.07 106.15,-53.55"/>
<text text-anchor="middle" x="94.75" y="-317.8" font-family="Times,serif" font-size="14.00">&lt;eps&gt;:a/1</text>
</g>
<!-- 0&#45;&gt;0 -->
<g id="edge16" class="edge">
<title>0&#45;&gt;0</title>
<path fill="none" stroke="black" d="M88.88,-43.52C62.89,-151.49 64.84,-332 94.75,-332 123.69,-332 126.46,-162.94 103.04,-54.18"/>
<polygon fill="black" stroke="black" points="106.25,-53.5 100.62,-44.52 99.43,-55.05 106.25,-53.5"/>
<text text-anchor="middle" x="94.75" y="-335.8" font-family="Times,serif" font-size="14.00">&lt;eps&gt;:b/1</text>
</g>
<!-- 0&#45;&gt;0 -->
<g id="edge17" class="edge">
<title>0&#45;&gt;0</title>
<path fill="none" stroke="black" d="M88.86,-43.34C60.88,-157.41 62.84,-350 94.75,-350 125.69,-350 128.47,-168.9 103.1,-53.91"/>
<polygon fill="black" stroke="black" points="106.31,-53.29 100.64,-44.34 99.5,-54.88 106.31,-53.29"/>
<text text-anchor="middle" x="94.75" y="-353.8" font-family="Times,serif" font-size="14.00">&lt;eps&gt;:c/1</text>
</g>
<!-- 0&#45;&gt;0 -->
<g id="edge18" class="edge">
<title>0&#45;&gt;0</title>
<path fill="none" stroke="black" d="M88.79,-43.39C58.87,-163.57 60.86,-368 94.75,-368 127.68,-368 130.49,-174.99 103.17,-53.8"/>
<polygon fill="black" stroke="black" points="106.42,-53.32 100.71,-44.39 99.61,-54.93 106.42,-53.32"/>
<text text-anchor="middle" x="94.75" y="-371.8" font-family="Times,serif" font-size="14.00">&lt;eps&gt;:d/1</text>
</g>
<!-- 0&#45;&gt;0 -->
<g id="edge19" class="edge">
<title>0&#45;&gt;0</title>
<path fill="none" stroke="black" d="M88.76,-43.33C56.87,-169.6 58.86,-386 94.75,-386 129.65,-386 132.5,-181.27 103.28,-53.88"/>
<polygon fill="black" stroke="black" points="106.48,-53.23 100.74,-44.33 99.68,-54.87 106.48,-53.23"/>
<text text-anchor="middle" x="94.75" y="-389.8" font-family="Times,serif" font-size="14.00">&lt;eps&gt;:e/1</text>
</g>
<!-- 0&#45;&gt;0 -->
<g id="edge20" class="edge">
<title>0&#45;&gt;0</title>
<path fill="none" stroke="black" d="M88.65,-43.56C54.86,-175.96 56.9,-404 94.75,-404 131.6,-404 134.5,-187.82 103.45,-54.23"/>
<polygon fill="black" stroke="black" points="106.61,-53.45 100.85,-44.56 99.81,-55.1 106.61,-53.45"/>
<text text-anchor="middle" x="94.75" y="-407.8" font-family="Times,serif" font-size="14.00">&lt;eps&gt;:f/1</text>
</g>
<!-- 0&#45;&gt;0 -->
<g id="edge21" class="edge">
<title>0&#45;&gt;0</title>
<path fill="none" stroke="black" d="M88.68,-43.29C52.86,-181.73 54.88,-422 94.75,-422 133.64,-422 136.52,-193.32 103.38,-53.61"/>
<polygon fill="black" stroke="black" points="106.62,-53.16 100.82,-44.29 99.83,-54.84 106.62,-53.16"/>
<text text-anchor="middle" x="94.75" y="-425.8" font-family="Times,serif" font-size="14.00">&lt;eps&gt;:g/1</text>
</g>
<!-- 0&#45;&gt;0 -->
<g id="edge22" class="edge">
<title>0&#45;&gt;0</title>
<path fill="none" stroke="black" d="M88.62,-43.36C50.85,-187.88 52.9,-440 94.75,-440 135.62,-440 138.53,-199.56 103.47,-53.69"/>
<polygon fill="black" stroke="black" points="106.7,-53.21 100.88,-44.36 99.91,-54.91 106.7,-53.21"/>
<text text-anchor="middle" x="94.75" y="-443.8" font-family="Times,serif" font-size="14.00">a:b/1.5</text>
</g>
<!-- 0&#45;&gt;0 -->
<g id="edge23" class="edge">
<title>0&#45;&gt;0</title>
<path fill="none" stroke="black" d="M88.58,-43.35C48.85,-193.94 50.9,-458 94.75,-458 137.61,-458 140.53,-205.67 103.53,-53.67"/>
<polygon fill="black" stroke="black" points="106.76,-53.18 100.91,-44.35 99.98,-54.9 106.76,-53.18"/>
<text text-anchor="middle" x="94.75" y="-461.8" font-family="Times,serif" font-size="14.00">a:c/1.5</text>
</g>
<!-- 0&#45;&gt;0 -->
<g id="edge24" class="edge">
<title>0&#45;&gt;0</title>
<path fill="none" stroke="black" d="M88.57,-43.27C46.85,-199.92 48.9,-476 94.75,-476 139.61,-476 142.54,-211.65 103.56,-53.53"/>
<polygon fill="black" stroke="black" points="106.8,-53.09 100.93,-44.27 100.02,-54.83 106.8,-53.09"/>
<text text-anchor="middle" x="94.75" y="-479.8" font-family="Times,serif" font-size="14.00">a:d/1.5</text>
</g>
<!-- 0&#45;&gt;0 -->
<g id="edge25" class="edge">
<title>0&#45;&gt;0</title>
<path fill="none" stroke="black" d="M88.58,-43.12C44.84,-205.79 46.9,-494 94.75,-494 141.62,-494 144.55,-217.49 103.55,-53.28"/>
<polygon fill="black" stroke="black" points="106.81,-52.92 100.92,-44.12 100.04,-54.67 106.81,-52.92"/>
<text text-anchor="middle" x="94.75" y="-497.8" font-family="Times,serif" font-size="14.00">a:e/1.5</text>
</g>
<!-- 0&#45;&gt;0 -->
<g id="edge26" class="edge">
<title>0&#45;&gt;0</title>
<path fill="none" stroke="black" d="M88.47,-43.4C42.84,-212.19 44.93,-512 94.75,-512 143.54,-512 146.55,-224.36 103.77,-53.95"/>
<polygon fill="black" stroke="black" points="106.93,-53.2 101.02,-44.4 100.16,-54.96 106.93,-53.2"/>
<text text-anchor="middle" x="94.75" y="-515.8" font-family="Times,serif" font-size="14.00">a:f/1.5</text>
</g>
<!-- 0&#45;&gt;0 -->
<g id="edge27" class="edge">
<title>0&#45;&gt;0</title>
<path fill="none" stroke="black" d="M88.45,-43.39C40.84,-218.23 42.94,-530 94.75,-530 145.55,-530 148.56,-230.29 103.78,-53.79"/>
<polygon fill="black" stroke="black" points="106.97,-53.17 101.05,-44.39 100.2,-54.95 106.97,-53.17"/>
<text text-anchor="middle" x="94.75" y="-533.8" font-family="Times,serif" font-size="14.00">a:g/1.5</text>
</g>
<!-- 0&#45;&gt;0 -->
<g id="edge28" class="edge">
<title>0&#45;&gt;0</title>
<path fill="none" stroke="black" d="M88.44,-43.32C38.83,-224.19 40.94,-548 94.75,-548 147.54,-548 150.56,-236.41 103.83,-53.8"/>
<polygon fill="black" stroke="black" points="107,-53.09 101.05,-44.32 100.23,-54.88 107,-53.09"/>
<text text-anchor="middle" x="94.75" y="-551.8" font-family="Times,serif" font-size="14.00">b:a/1.5</text>
</g>
<!-- 0&#45;&gt;0 -->
<g id="edge29" class="edge">
<title>0&#45;&gt;0</title>
<path fill="none" stroke="black" d="M88.37,-43.48C36.83,-230.43 38.96,-566 94.75,-566 149.5,-566 152.57,-242.77 103.94,-54.03"/>
<polygon fill="black" stroke="black" points="107.08,-53.24 101.12,-44.48 100.32,-55.04 107.08,-53.24"/>
<text text-anchor="middle" x="94.75" y="-569.8" font-family="Times,serif" font-size="14.00">b:c/1.5</text>
</g>
<!-- 0&#45;&gt;0 -->
<g id="edge30" class="edge">
<title>0&#45;&gt;0</title>
<path fill="none" stroke="black" d="M88.4,-43.31C34.83,-236.27 36.95,-584 94.75,-584 151.51,-584 154.57,-248.72 103.95,-53.91"/>
<polygon fill="black" stroke="black" points="107.07,-53.06 101.1,-44.31 100.31,-54.87 107.07,-53.06"/>
<text text-anchor="middle" x="94.75" y="-587.8" font-family="Times,serif" font-size="14.00">b:d/1.5</text>
</g>
<!-- 0&#45;&gt;0 -->
<g id="edge31" class="edge">
<title>0&#45;&gt;0</title>
<path fill="none" stroke="black" d="M88.35,-43.38C32.83,-242.41 34.96,-602 94.75,-602 153.52,-602 156.58,-254.59 103.94,-53.73"/>
<polygon fill="black" stroke="black" points="107.13,-53.12 101.14,-44.38 100.37,-54.95 107.13,-53.12"/>
<text text-anchor="middle" x="94.75" y="-605.8" font-family="Times,serif" font-size="14.00">b:e/1.5</text>
</g>
<!-- 0&#45;&gt;0 -->
<g id="edge32" class="edge">
<title>0&#45;&gt;0</title>
<path fill="none" stroke="black" d="M88.32,-43.43C30.83,-248.5 32.97,-620 94.75,-620 155.5,-620 158.58,-260.73 103.99,-53.77"/>
<polygon fill="black" stroke="black" points="107.18,-53.16 101.17,-44.43 100.42,-54.99 107.18,-53.16"/>
<text text-anchor="middle" x="94.75" y="-623.8" font-family="Times,serif" font-size="14.00">b:f/1.5</text>
</g>
<!-- 0&#45;&gt;0 -->
<g id="edge33" class="edge">
<title>0&#45;&gt;0</title>
<path fill="none" stroke="black" d="M88.3,-43.43C28.82,-254.54 30.97,-638 94.75,-638 157.5,-638 160.59,-266.8 104.02,-53.77"/>
<polygon fill="black" stroke="black" points="107.21,-53.15 101.19,-44.43 100.46,-55 107.21,-53.15"/>
<text text-anchor="middle" x="94.75" y="-641.8" font-family="Times,serif" font-size="14.00">b:g/1.5</text>
</g>
<!-- 0&#45;&gt;0 -->
<g id="edge34" class="edge">
<title>0&#45;&gt;0</title>
<path fill="none" stroke="black" d="M88.29,-43.4C26.82,-260.54 28.97,-656 94.75,-656 159.5,-656 162.59,-272.8 104.04,-53.7"/>
<polygon fill="black" stroke="black" points="107.23,-53.11 101.2,-44.4 100.48,-54.97 107.23,-53.11"/>
<text text-anchor="middle" x="94.75" y="-659.8" font-family="Times,serif" font-size="14.00">c:a/1.5</text>
</g>
<!-- 0&#45;&gt;0 -->
<g id="edge35" class="edge">
<title>0&#45;&gt;0</title>
<path fill="none" stroke="black" d="M88.3,-43.33C24.82,-266.49 26.97,-674 94.75,-674 161.47,-674 164.59,-279.12 104.13,-53.92"/>
<polygon fill="black" stroke="black" points="107.24,-53.04 101.2,-44.33 100.49,-54.9 107.24,-53.04"/>
<text text-anchor="middle" x="94.75" y="-677.8" font-family="Times,serif" font-size="14.00">c:b/1.5</text>
</g>
<!-- 0&#45;&gt;0 -->
<g id="edge36" class="edge">
<title>0&#45;&gt;0</title>
<path fill="none" stroke="black" d="M88.31,-43.22C22.82,-272.39 24.96,-692 94.75,-692 163.48,-692 166.6,-285 104.12,-53.76"/>
<polygon fill="black" stroke="black" points="107.24,-52.92 101.19,-44.22 100.49,-54.8 107.24,-52.92"/>
<text text-anchor="middle" x="94.75" y="-695.8" font-family="Times,serif" font-size="14.00">c:d/1.5</text>
</g>
<!-- 0&#45;&gt;0 -->
<g id="edge37" class="edge">
<title>0&#45;&gt;0</title>
<path fill="none" stroke="black" d="M88.23,-43.44C20.82,-278.68 22.99,-710 94.75,-710 165.46,-710 168.6,-291.23 104.18,-53.9"/>
<polygon fill="black" stroke="black" points="107.32,-53.13 101.27,-44.44 100.58,-55.01 107.32,-53.13"/>
<text text-anchor="middle" x="94.75" y="-713.8" font-family="Times,serif" font-size="14.00">c:e/1.5</text>
</g>
<!-- 0&#45;&gt;0 -->
<g id="edge38" class="edge">
<title>0&#45;&gt;0</title>
<path fill="none" stroke="black" d="M88.26,-43.27C18.81,-284.51 20.98,-728 94.75,-728 167.48,-728 170.61,-296.98 104.14,-53.64"/>
<polygon fill="black" stroke="black" points="107.3,-52.96 101.23,-44.27 100.56,-54.85 107.3,-52.96"/>
<text text-anchor="middle" x="94.75" y="-731.8" font-family="Times,serif" font-size="14.00">c:f/1.5</text>
</g>
<!-- 0&#45;&gt;0 -->
<g id="edge39" class="edge">
<title>0&#45;&gt;0</title>
<path fill="none" stroke="black" d="M88.2,-43.44C16.81,-290.74 19,-746 94.75,-746 169.47,-746 172.61,-303.11 104.18,-53.7"/>
<polygon fill="black" stroke="black" points="107.37,-53.12 101.3,-44.44 100.64,-55.02 107.37,-53.12"/>
<text text-anchor="middle" x="94.75" y="-749.8" font-family="Times,serif" font-size="14.00">c:g/1.5</text>
</g>
<!-- 0&#45;&gt;0 -->
<g id="edge40" class="edge">
<title>0&#45;&gt;0</title>
<path fill="none" stroke="black" d="M88.25,-43.21C14.81,-296.49 16.98,-764 94.75,-764 171.46,-764 174.61,-309.18 104.21,-53.72"/>
<polygon fill="black" stroke="black" points="107.33,-52.88 101.24,-44.21 100.59,-54.79 107.33,-52.88"/>
<text text-anchor="middle" x="94.75" y="-767.8" font-family="Times,serif" font-size="14.00">d:a/1.5</text>
</g>
<!-- 0&#45;&gt;0 -->
<g id="edge41" class="edge">
<title>0&#45;&gt;0</title>
<path fill="none" stroke="black" d="M88.21,-43.33C12.81,-302.66 14.99,-782 94.75,-782 173.45,-782 176.62,-315.22 104.23,-53.7"/>
<polygon fill="black" stroke="black" points="107.39,-53 101.29,-44.33 100.65,-54.91 107.39,-53"/>
<text text-anchor="middle" x="94.75" y="-785.8" font-family="Times,serif" font-size="14.00">d:b/1.5</text>
</g>
<!-- 0&#45;&gt;0 -->
<g id="edge42" class="edge">
<title>0&#45;&gt;0</title>
<path fill="none" stroke="black" d="M88.16,-43.44C10.81,-308.82 13,-800 94.75,-800 175.45,-800 178.62,-321.21 104.24,-53.65"/>
<polygon fill="black" stroke="black" points="107.44,-53.1 101.33,-44.44 100.71,-55.02 107.44,-53.1"/>
<text text-anchor="middle" x="94.75" y="-803.8" font-family="Times,serif" font-size="14.00">d:c/1.5</text>
</g>
<!-- 0&#45;&gt;0 -->
<g id="edge43" class="edge">
<title>0&#45;&gt;0</title>
<path fill="none" stroke="black" d="M88.24,-43.12C8.81,-314.44 10.97,-818 94.75,-818 177.46,-818 180.62,-327.15 104.24,-53.56"/>
<polygon fill="black" stroke="black" points="107.37,-52.77 101.25,-44.12 100.64,-54.7 107.37,-52.77"/>
<text text-anchor="middle" x="94.75" y="-821.8" font-family="Times,serif" font-size="14.00">d:e/1.5</text>
</g>
<!-- 0&#45;&gt;0 -->
<g id="edge44" class="edge">
<title>0&#45;&gt;0</title>
<path fill="none" stroke="black" d="M88.22,-43.18C6.81,-320.54 8.98,-836 94.75,-836 179.47,-836 182.63,-333.05 104.23,-53.44"/>
<polygon fill="black" stroke="black" points="107.4,-52.83 101.28,-44.18 100.67,-54.76 107.4,-52.83"/>
<text text-anchor="middle" x="94.75" y="-839.8" font-family="Times,serif" font-size="14.00">d:f/1.5</text>
</g>
<!-- 0&#45;&gt;0 -->
<g id="edge45" class="edge">
<title>0&#45;&gt;0</title>
<path fill="none" stroke="black" d="M88.19,-43.22C4.8,-326.61 6.99,-854 94.75,-854 181.44,-854 184.63,-339.41 104.32,-53.71"/>
<polygon fill="black" stroke="black" points="107.43,-52.86 101.3,-44.22 100.7,-54.8 107.43,-52.86"/>
<text text-anchor="middle" x="94.75" y="-857.8" font-family="Times,serif" font-size="14.00">d:g/1.5</text>
</g>
<!-- 0&#45;&gt;0 -->
<g id="edge46" class="edge">
<title>0&#45;&gt;0</title>
<path fill="none" stroke="black" d="M88.17,-43.25C2.8,-332.66 4.99,-872 94.75,-872 183.45,-872 186.63,-345.23 104.29,-53.52"/>
<polygon fill="black" stroke="black" points="107.46,-52.88 101.32,-44.25 100.73,-54.82 107.46,-52.88"/>
<text text-anchor="middle" x="94.75" y="-875.8" font-family="Times,serif" font-size="14.00">e:a/1.5</text>
</g>
<!-- 0&#45;&gt;0 -->
<g id="edge47" class="edge">
<title>0&#45;&gt;0</title>
<path fill="none" stroke="black" d="M88.16,-43.25C0.8,-338.69 3,-890 94.75,-890 185.42,-890 188.63,-351.54 104.37,-53.74"/>
<polygon fill="black" stroke="black" points="107.48,-52.89 101.33,-44.25 100.75,-54.83 107.48,-52.89"/>
<text text-anchor="middle" x="94.75" y="-893.8" font-family="Times,serif" font-size="14.00">e:b/1.5</text>
</g>
<!-- 0&#45;&gt;0 -->
<g id="edge48" class="edge">
<title>0&#45;&gt;0</title>
<path fill="none" stroke="black" d="M88.16,-43.24C-1.2,-344.7 1,-908 94.75,-908 187.45,-908 190.63,-357.28 104.32,-53.5"/>
<polygon fill="black" stroke="black" points="107.49,-52.87 101.34,-44.24 100.77,-54.82 107.49,-52.87"/>
<text text-anchor="middle" x="94.75" y="-911.8" font-family="Times,serif" font-size="14.00">e:c/1.5</text>
</g>
<!-- 0&#45;&gt;0 -->
<g id="edge49" class="edge">
<title>0&#45;&gt;0</title>
<path fill="none" stroke="black" d="M88.16,-43.21C-3.2,-350.68 -1,-926 94.75,-926 189.42,-926 192.64,-363.53 104.38,-53.67"/>
<polygon fill="black" stroke="black" points="107.49,-52.84 101.34,-44.21 100.77,-54.79 107.49,-52.84"/>
<text text-anchor="middle" x="94.75" y="-929.8" font-family="Times,serif" font-size="14.00">e:d/1.5</text>
</g>
<!-- 0&#45;&gt;0 -->
<g id="edge50" class="edge">
<title>0&#45;&gt;0</title>
<path fill="none" stroke="black" d="M88.16,-43.16C-5.2,-356.64 -3.01,-944 94.75,-944 191.45,-944 194.64,-369.19 104.31,-53.36"/>
<polygon fill="black" stroke="black" points="107.5,-52.78 101.34,-44.16 100.78,-54.74 107.5,-52.78"/>
<text text-anchor="middle" x="94.75" y="-947.8" font-family="Times,serif" font-size="14.00">e:f/1.5</text>
</g>
<!-- 0&#45;&gt;0 -->
<g id="edge51" class="edge">
<title>0&#45;&gt;0</title>
<path fill="none" stroke="black" d="M88.17,-43.1C-7.2,-362.57 -5.01,-962 94.75,-962 193.44,-962 196.64,-375.38 104.36,-53.49"/>
<polygon fill="black" stroke="black" points="107.49,-52.71 101.32,-44.1 100.77,-54.68 107.49,-52.71"/>
<text text-anchor="middle" x="94.75" y="-965.8" font-family="Times,serif" font-size="14.00">e:g/1.5</text>
</g>
<!-- 0&#45;&gt;0 -->
<g id="edge52" class="edge">
<title>0&#45;&gt;0</title>
<path fill="none" stroke="black" d="M88.19,-43.01C-9.2,-368.48 -7.02,-980 94.75,-980 195.47,-980 198.65,-380.96 104.27,-53.12"/>
<polygon fill="black" stroke="black" points="107.48,-52.62 101.31,-44.01 100.77,-54.6 107.48,-52.62"/>
<text text-anchor="middle" x="94.75" y="-983.8" font-family="Times,serif" font-size="14.00">f:a/1.5</text>
</g>
<!-- 0&#45;&gt;0 -->
<g id="edge53" class="edge">
<title>0&#45;&gt;0</title>
<path fill="none" stroke="black" d="M88.06,-43.41C-11.2,-374.99 -8.97,-998 94.75,-998 197.41,-998 200.64,-387.7 104.46,-53.7"/>
<polygon fill="black" stroke="black" points="107.61,-53.02 101.43,-44.41 100.89,-54.99 107.61,-53.02"/>
<text text-anchor="middle" x="94.75" y="-1001.8" font-family="Times,serif" font-size="14.00">f:b/1.5</text>
</g>
<!-- 0&#45;&gt;0 -->
<g id="edge54" class="edge">
<title>0&#45;&gt;0</title>
<path fill="none" stroke="black" d="M88.09,-43.3C-13.2,-380.87 -10.98,-1016 94.75,-1016 199.4,-1016 202.64,-393.83 104.49,-53.78"/>
<polygon fill="black" stroke="black" points="107.59,-52.9 101.41,-44.3 100.87,-54.88 107.59,-52.9"/>
<text text-anchor="middle" x="94.75" y="-1019.8" font-family="Times,serif" font-size="14.00">f:c/1.5</text>
</g>
<!-- 0&#45;&gt;0 -->
<g id="edge55" class="edge">
<title>0&#45;&gt;0</title>
<path fill="none" stroke="black" d="M88.04,-43.43C-15.2,-387.04 -12.97,-1034 94.75,-1034 201.39,-1034 204.65,-399.93 104.52,-53.84"/>
<polygon fill="black" stroke="black" points="107.64,-53.03 101.45,-44.43 100.93,-55.01 107.64,-53.03"/>
<text text-anchor="middle" x="94.75" y="-1037.8" font-family="Times,serif" font-size="14.00">f:d/1.5</text>
</g>
<!-- 0&#45;&gt;0 -->
<g id="edge56" class="edge">
<title>0&#45;&gt;0</title>
<path fill="none" stroke="black" d="M88.08,-43.29C-17.21,-392.88 -14.98,-1052 94.75,-1052 203.41,-1052 206.65,-405.69 104.47,-53.62"/>
<polygon fill="black" stroke="black" points="107.61,-52.88 101.42,-44.29 100.9,-54.87 107.61,-52.88"/>
<text text-anchor="middle" x="94.75" y="-1055.8" font-family="Times,serif" font-size="14.00">f:e/1.5</text>
</g>
<!-- 0&#45;&gt;0 -->
<g id="edge57" class="edge">
<title>0&#45;&gt;0</title>
<path fill="none" stroke="black" d="M88.04,-43.39C-19.21,-399.03 -16.97,-1070 94.75,-1070 205.38,-1070 208.65,-412.07 104.57,-53.9"/>
<polygon fill="black" stroke="black" points="107.65,-52.99 101.46,-44.39 100.94,-54.97 107.65,-52.99"/>
<text text-anchor="middle" x="94.75" y="-1073.8" font-family="Times,serif" font-size="14.00">f:g/1.5</text>
</g>
<!-- 0&#45;&gt;0 -->
<g id="edge58" class="edge">
<title>0&#45;&gt;0</title>
<path fill="none" stroke="black" d="M88.08,-43.22C-21.21,-404.82 -18.99,-1088 94.75,-1088 207.4,-1088 210.65,-417.77 104.5,-53.63"/>
<polygon fill="black" stroke="black" points="107.61,-52.81 101.41,-44.22 100.9,-54.8 107.61,-52.81"/>
<text text-anchor="middle" x="94.75" y="-1091.8" font-family="Times,serif" font-size="14.00">g:a/1.5</text>
</g>
<!-- 0&#45;&gt;0 -->
<g id="edge59" class="edge">
<title>0&#45;&gt;0</title>
<path fill="none" stroke="black" d="M88.05,-43.3C-23.21,-410.94 -20.98,-1106 94.75,-1106 209.4,-1106 212.65,-423.78 104.51,-53.62"/>
<polygon fill="black" stroke="black" points="107.65,-52.89 101.44,-44.3 100.94,-54.89 107.65,-52.89"/>
<text text-anchor="middle" x="94.75" y="-1109.8" font-family="Times,serif" font-size="14.00">g:b/1.5</text>
</g>
<!-- 0&#45;&gt;0 -->
<g id="edge60" class="edge">
<title>0&#45;&gt;0</title>
<path fill="none" stroke="black" d="M88.02,-43.38C-25.21,-417.05 -22.97,-1124 94.75,-1124 211.37,-1124 214.65,-430.1 104.6,-53.86"/>
<polygon fill="black" stroke="black" points="107.68,-52.96 101.47,-44.38 100.97,-54.96 107.68,-52.96"/>
<text text-anchor="middle" x="94.75" y="-1127.8" font-family="Times,serif" font-size="14.00">g:c/1.5</text>
</g>
<!-- 0&#45;&gt;0 -->
<g id="edge61" class="edge">
<title>0&#45;&gt;0</title>
<path fill="none" stroke="black" d="M88,-43.44C-27.21,-423.14 -24.96,-1142 94.75,-1142 213.37,-1142 216.66,-436.07 104.59,-53.81"/>
<polygon fill="black" stroke="black" points="107.71,-53.03 101.5,-44.44 101,-55.03 107.71,-53.03"/>
<text text-anchor="middle" x="94.75" y="-1145.8" font-family="Times,serif" font-size="14.00">g:d/1.5</text>
</g>
<!-- 0&#45;&gt;0 -->
<g id="edge62" class="edge">
<title>0&#45;&gt;0</title>
<path fill="none" stroke="black" d="M88.06,-43.21C-29.21,-428.86 -26.98,-1160 94.75,-1160 215.38,-1160 218.66,-442.01 104.58,-53.75"/>
<polygon fill="black" stroke="black" points="107.65,-52.79 101.44,-44.21 100.95,-54.8 107.65,-52.79"/>
<text text-anchor="middle" x="94.75" y="-1163.8" font-family="Times,serif" font-size="14.00">g:e/1.5</text>
</g>
<!-- 0&#45;&gt;0 -->
<g id="edge63" class="edge">
<title>0&#45;&gt;0</title>
<path fill="none" stroke="black" d="M88.04,-43.26C-31.21,-434.93 -28.98,-1178 94.75,-1178 217.38,-1178 220.66,-447.93 104.57,-53.66"/>
<polygon fill="black" stroke="black" points="107.68,-52.83 101.45,-44.26 100.97,-54.84 107.68,-52.83"/>
<text text-anchor="middle" x="94.75" y="-1181.8" font-family="Times,serif" font-size="14.00">g:f/1.5</text>
</g>
</g>
</svg>
