<?xml version="1.0" encoding="UTF-8" standalone="no"?>
<!DOCTYPE svg PUBLIC "-//W3C//DTD SVG 1.1//EN"
 "http://www.w3.org/Graphics/SVG/1.1/DTD/svg11.dtd">
<!-- Generated by graphviz version 8.0.1 (20230327.1645)
 -->
<!-- Title: FST Pages: 1 -->
<svg width="99pt" height="792pt"
 viewBox="0.00 0.00 98.59 792.00" xmlns="http://www.w3.org/2000/svg" xmlns:xlink="http://www.w3.org/1999/xlink">
<g id="graph0" class="graph" transform="scale(0.550765 0.550765) rotate(0) translate(4 1434)">
<title>FST</title>
<polygon fill="white" stroke="none" points="-4,4 -4,-1434 175,-1434 175,4 -4,4"/>
<!-- 0 -->
<g id="node1" class="node">
<title>0</title>
<ellipse fill="none" stroke="black" stroke-width="2" cx="85.5" cy="-22" rx="18" ry="18"/>
<ellipse fill="none" stroke="black" stroke-width="2" cx="85.5" cy="-22" rx="22" ry="22"/>
<text text-anchor="middle" x="85.5" y="-18.3" font-family="Times,serif" font-size="14.00">0</text>
</g>
<!-- 0&#45;&gt;0 -->
<g id="edge1" class="edge">
<title>0&#45;&gt;0</title>
<path fill="none" stroke="black" d="M84.02,-44.21C83.9,-53.8 84.39,-62 85.5,-62 86.14,-62 86.58,-59.26 86.81,-55.09"/>
<polygon fill="black" stroke="black" points="90.32,-55.27 86.98,-45.21 83.32,-55.15 90.32,-55.27"/>
<text text-anchor="middle" x="85.5" y="-65.8" font-family="Times,serif" font-size="14.00">austen:austen/2.806</text>
</g>
<!-- 0&#45;&gt;0 -->
<g id="edge2" class="edge">
<title>0&#45;&gt;0</title>
<path fill="none" stroke="black" d="M82.9,-44.32C81.9,-61.93 82.77,-80 85.5,-80 87.68,-80 88.67,-68.53 88.48,-54.95"/>
<polygon fill="black" stroke="black" points="91.95,-55.19 88.1,-45.32 84.96,-55.44 91.95,-55.19"/>
<text text-anchor="middle" x="85.5" y="-83.8" font-family="Times,serif" font-size="14.00">by:by/1.813</text>
</g>
<!-- 0&#45;&gt;0 -->
<g id="edge3" class="edge">
<title>0&#45;&gt;0</title>
<path fill="none" stroke="black" d="M82.16,-44.17C79.86,-69.2 80.98,-98 85.5,-98 89.39,-98 90.76,-76.73 89.61,-54.87"/>
<polygon fill="black" stroke="black" points="93.05,-54.9 88.84,-45.17 86.06,-55.4 93.05,-54.9"/>
<text text-anchor="middle" x="85.5" y="-101.8" font-family="Times,serif" font-size="14.00">emma:emma/3.262</text>
</g>
<!-- 0&#45;&gt;0 -->
<g id="edge4" class="edge">
<title>0&#45;&gt;0</title>
<path fill="none" stroke="black" d="M81.67,-43.71C77.82,-75.81 79.09,-116 85.5,-116 91.21,-116 92.84,-84.12 90.41,-54.47"/>
<polygon fill="black" stroke="black" points="93.81,-54.31 89.33,-44.71 86.85,-55.01 93.81,-54.31"/>
<text text-anchor="middle" x="85.5" y="-119.8" font-family="Times,serif" font-size="14.00">i:i/4.238</text>
</g>
<!-- 0&#45;&gt;0 -->
<g id="edge5" class="edge">
<title>0&#45;&gt;0</title>
<path fill="none" stroke="black" d="M81.23,-43.99C75.8,-82.79 77.22,-134 85.5,-134 93.04,-134 94.89,-91.58 91.07,-54.7"/>
<polygon fill="black" stroke="black" points="94.45,-54.5 89.77,-44.99 87.5,-55.34 94.45,-54.5"/>
<text text-anchor="middle" x="85.5" y="-137.8" font-family="Times,serif" font-size="14.00">volume:volume/1.262</text>
</g>
<!-- 0&#45;&gt;0 -->
<g id="edge6" class="edge">
<title>0&#45;&gt;0</title>
<path fill="none" stroke="black" d="M80.95,-43.74C73.76,-89.15 75.28,-152 85.5,-152 94.94,-152 96.95,-98.36 91.54,-54.38"/>
<polygon fill="black" stroke="black" points="94.9,-54.15 90.05,-44.74 87.97,-55.12 94.9,-54.15"/>
<text text-anchor="middle" x="85.5" y="-155.8" font-family="Times,serif" font-size="14.00">chapter:chapter/3.209</text>
</g>
<!-- 0&#45;&gt;0 -->
<g id="edge7" class="edge">
<title>0&#45;&gt;0</title>
<path fill="none" stroke="black" d="M80.66,-43.92C71.75,-95.8 73.36,-170 85.5,-170 96.83,-170 98.99,-105.33 91.97,-54.52"/>
<polygon fill="black" stroke="black" points="95.32,-54.27 90.34,-44.92 88.4,-55.34 95.32,-54.27"/>
<text text-anchor="middle" x="85.5" y="-173.8" font-family="Times,serif" font-size="14.00">a:a/3.246</text>
</g>
<!-- 0&#45;&gt;0 -->
<g id="edge8" class="edge">
<title>0&#45;&gt;0</title>
<path fill="none" stroke="black" d="M80.46,-43.85C69.73,-102.13 71.41,-188 85.5,-188 98.77,-188 101.03,-111.9 92.3,-54.36"/>
<polygon fill="black" stroke="black" points="95.64,-54.14 90.54,-44.85 88.74,-55.29 95.64,-54.14"/>
<text text-anchor="middle" x="85.5" y="-191.8" font-family="Times,serif" font-size="14.00">and:and/3.623</text>
</g>
<!-- 0&#45;&gt;0 -->
<g id="edge9" class="edge">
<title>0&#45;&gt;0</title>
<path fill="none" stroke="black" d="M80.32,-43.66C67.71,-108.27 69.43,-206 85.5,-206 100.72,-206 103.07,-118.31 92.55,-54.14"/>
<polygon fill="black" stroke="black" points="95.89,-53.89 90.68,-44.66 88.99,-55.12 95.89,-53.89"/>
<text text-anchor="middle" x="85.5" y="-209.8" font-family="Times,serif" font-size="14.00">clever:clever/3.851</text>
</g>
<!-- 0&#45;&gt;0 -->
<g id="edge10" class="edge">
<title>0&#45;&gt;0</title>
<path fill="none" stroke="black" d="M80.21,-43.46C65.69,-114.35 67.45,-224 85.5,-224 102.67,-224 105.1,-124.8 92.8,-54.11"/>
<polygon fill="black" stroke="black" points="96.08,-53.64 90.79,-44.46 89.2,-54.94 96.08,-53.64"/>
<text text-anchor="middle" x="85.5" y="-227.8" font-family="Times,serif" font-size="14.00">comfortable:comfortable/0.763</text>
</g>
<!-- 0&#45;&gt;0 -->
<g id="edge11" class="edge">
<title>0&#45;&gt;0</title>
<path fill="none" stroke="black" d="M80.1,-43.38C63.68,-120.5 65.48,-242 85.5,-242 104.62,-242 107.12,-131.17 93,-54.03"/>
<polygon fill="black" stroke="black" points="96.27,-53.51 90.9,-44.38 89.4,-54.87 96.27,-53.51"/>
<text text-anchor="middle" x="85.5" y="-245.8" font-family="Times,serif" font-size="14.00">handsome:handsome/3.363</text>
</g>
<!-- 0&#45;&gt;0 -->
<g id="edge12" class="edge">
<title>0&#45;&gt;0</title>
<path fill="none" stroke="black" d="M79.96,-43.53C61.67,-126.87 63.52,-260 85.5,-260 106.56,-260 109.14,-137.81 93.24,-54.27"/>
<polygon fill="black" stroke="black" points="96.47,-53.62 91.04,-44.53 89.61,-55.02 96.47,-53.62"/>
<text text-anchor="middle" x="85.5" y="-263.8" font-family="Times,serif" font-size="14.00">home:home/1.498</text>
</g>
<!-- 0&#45;&gt;0 -->
<g id="edge13" class="edge">
<title>0&#45;&gt;0</title>
<path fill="none" stroke="black" d="M79.82,-43.73C59.66,-133.27 61.56,-278 85.5,-278 108.51,-278 111.16,-144.35 93.44,-54.46"/>
<polygon fill="black" stroke="black" points="96.67,-53.79 91.18,-44.73 89.82,-55.23 96.67,-53.79"/>
<text text-anchor="middle" x="85.5" y="-281.8" font-family="Times,serif" font-size="14.00">rich:rich/1.212</text>
</g>
<!-- 0&#45;&gt;0 -->
<g id="edge14" class="edge">
<title>0&#45;&gt;0</title>
<path fill="none" stroke="black" d="M79.73,-43.73C57.65,-139.44 59.58,-296 85.5,-296 110.49,-296 113.18,-150.55 93.57,-54.34"/>
<polygon fill="black" stroke="black" points="96.81,-53.76 91.27,-44.73 89.97,-55.25 96.81,-53.76"/>
<text text-anchor="middle" x="85.5" y="-299.8" font-family="Times,serif" font-size="14.00">with:with/3.71</text>
</g>
<!-- 0&#45;&gt;0 -->
<g id="edge15" class="edge">
<title>0&#45;&gt;0</title>
<path fill="none" stroke="black" d="M79.69,-43.55C55.64,-145.39 57.58,-314 85.5,-314 112.47,-314 115.19,-156.72 93.68,-54.22"/>
<polygon fill="black" stroke="black" points="96.9,-53.55 91.31,-44.55 90.06,-55.07 96.9,-53.55"/>
<text text-anchor="middle" x="85.5" y="-317.8" font-family="Times,serif" font-size="14.00">woodhouse:woodhouse/2.909</text>
</g>
<!-- 0&#45;&gt;0 -->
<g id="edge16" class="edge">
<title>0&#45;&gt;0</title>
<path fill="none" stroke="black" d="M79.63,-43.52C53.64,-151.49 55.59,-332 85.5,-332 114.44,-332 117.21,-162.94 93.8,-54.18"/>
<polygon fill="black" stroke="black" points="97,-53.5 91.37,-44.52 90.18,-55.05 97,-53.5"/>
<text text-anchor="middle" x="85.5" y="-335.8" font-family="Times,serif" font-size="14.00">best:best/2.988</text>
</g>
<!-- 0&#45;&gt;0 -->
<g id="edge17" class="edge">
<title>0&#45;&gt;0</title>
<path fill="none" stroke="black" d="M79.61,-43.34C51.63,-157.41 53.59,-350 85.5,-350 116.44,-350 119.23,-168.9 93.85,-53.91"/>
<polygon fill="black" stroke="black" points="97.06,-53.29 91.39,-44.34 90.25,-54.88 97.06,-53.29"/>
<text text-anchor="middle" x="85.5" y="-353.8" font-family="Times,serif" font-size="14.00">blessings:blessings/3.88</text>
</g>
<!-- 0&#45;&gt;0 -->
<g id="edge18" class="edge">
<title>0&#45;&gt;0</title>
<path fill="none" stroke="black" d="M79.54,-43.39C49.62,-163.57 51.61,-368 85.5,-368 118.43,-368 121.24,-174.99 93.92,-53.8"/>
<polygon fill="black" stroke="black" points="97.17,-53.32 91.46,-44.39 90.36,-54.93 97.17,-53.32"/>
<text text-anchor="middle" x="85.5" y="-371.8" font-family="Times,serif" font-size="14.00">disposition:disposition/2.707</text>
</g>
<!-- 0&#45;&gt;0 -->
<g id="edge19" class="edge">
<title>0&#45;&gt;0</title>
<path fill="none" stroke="black" d="M79.51,-43.33C47.62,-169.6 49.62,-386 85.5,-386 120.4,-386 123.25,-181.27 94.03,-53.88"/>
<polygon fill="black" stroke="black" points="97.24,-53.23 91.49,-44.33 90.43,-54.87 97.24,-53.23"/>
<text text-anchor="middle" x="85.5" y="-389.8" font-family="Times,serif" font-size="14.00">happy:happy/1.061</text>
</g>
<!-- 0&#45;&gt;0 -->
<g id="edge20" class="edge">
<title>0&#45;&gt;0</title>
<path fill="none" stroke="black" d="M79.4,-43.56C45.62,-175.96 47.65,-404 85.5,-404 122.35,-404 125.25,-187.82 94.2,-54.23"/>
<polygon fill="black" stroke="black" points="97.37,-53.45 91.6,-44.56 90.56,-55.1 97.37,-53.45"/>
<text text-anchor="middle" x="85.5" y="-407.8" font-family="Times,serif" font-size="14.00">of:of/4.513</text>
</g>
<!-- 0&#45;&gt;0 -->
<g id="edge21" class="edge">
<title>0&#45;&gt;0</title>
<path fill="none" stroke="black" d="M79.43,-43.29C43.61,-181.73 45.63,-422 85.5,-422 124.39,-422 127.27,-193.32 94.13,-53.61"/>
<polygon fill="black" stroke="black" points="97.38,-53.16 91.57,-44.29 90.58,-54.84 97.38,-53.16"/>
<text text-anchor="middle" x="85.5" y="-425.8" font-family="Times,serif" font-size="14.00">seemed:seemed/2.302</text>
</g>
<!-- 0&#45;&gt;0 -->
<g id="edge22" class="edge">
<title>0&#45;&gt;0</title>
<path fill="none" stroke="black" d="M79.37,-43.36C41.6,-187.88 43.65,-440 85.5,-440 126.37,-440 129.28,-199.56 94.22,-53.69"/>
<polygon fill="black" stroke="black" points="97.46,-53.21 91.63,-44.36 90.67,-54.91 97.46,-53.21"/>
<text text-anchor="middle" x="85.5" y="-443.8" font-family="Times,serif" font-size="14.00">some:some/0.89</text>
</g>
<!-- 0&#45;&gt;0 -->
<g id="edge23" class="edge">
<title>0&#45;&gt;0</title>
<path fill="none" stroke="black" d="M79.33,-43.35C39.6,-193.94 41.66,-458 85.5,-458 128.36,-458 131.29,-205.67 94.28,-53.67"/>
<polygon fill="black" stroke="black" points="97.51,-53.18 91.67,-44.35 90.73,-54.9 97.51,-53.18"/>
<text text-anchor="middle" x="85.5" y="-461.8" font-family="Times,serif" font-size="14.00">the:the/0.617</text>
</g>
<!-- 0&#45;&gt;0 -->
<g id="edge24" class="edge">
<title>0&#45;&gt;0</title>
<path fill="none" stroke="black" d="M79.32,-43.27C37.6,-199.92 39.66,-476 85.5,-476 130.36,-476 133.29,-211.65 94.31,-53.53"/>
<polygon fill="black" stroke="black" points="97.55,-53.09 91.68,-44.27 90.77,-54.83 97.55,-53.09"/>
<text text-anchor="middle" x="85.5" y="-479.8" font-family="Times,serif" font-size="14.00">to:to/2.972</text>
</g>
<!-- 0&#45;&gt;0 -->
<g id="edge25" class="edge">
<title>0&#45;&gt;0</title>
<path fill="none" stroke="black" d="M79.33,-43.12C35.59,-205.79 37.65,-494 85.5,-494 132.37,-494 135.3,-217.49 94.3,-53.28"/>
<polygon fill="black" stroke="black" points="97.56,-52.92 91.67,-44.12 90.79,-54.67 97.56,-52.92"/>
<text text-anchor="middle" x="85.5" y="-497.8" font-family="Times,serif" font-size="14.00">unite:unite/4.328</text>
</g>
<!-- 0&#45;&gt;0 -->
<g id="edge26" class="edge">
<title>0&#45;&gt;0</title>
<path fill="none" stroke="black" d="M79.22,-43.4C33.59,-212.19 35.68,-512 85.5,-512 134.29,-512 137.3,-224.36 94.52,-53.95"/>
<polygon fill="black" stroke="black" points="97.68,-53.2 91.78,-44.4 90.91,-54.96 97.68,-53.2"/>
<text text-anchor="middle" x="85.5" y="-515.8" font-family="Times,serif" font-size="14.00">existence:existence/4.062</text>
</g>
<!-- 0&#45;&gt;0 -->
<g id="edge27" class="edge">
<title>0&#45;&gt;0</title>
<path fill="none" stroke="black" d="M79.2,-43.39C31.59,-218.23 33.69,-530 85.5,-530 136.3,-530 139.31,-230.29 94.53,-53.79"/>
<polygon fill="black" stroke="black" points="97.73,-53.17 91.8,-44.39 90.96,-54.95 97.73,-53.17"/>
<text text-anchor="middle" x="85.5" y="-533.8" font-family="Times,serif" font-size="14.00">had:had/1.728</text>
</g>
<!-- 0&#45;&gt;0 -->
<g id="edge28" class="edge">
<title>0&#45;&gt;0</title>
<path fill="none" stroke="black" d="M79.19,-43.32C29.59,-224.19 31.69,-548 85.5,-548 138.29,-548 141.32,-236.41 94.58,-53.8"/>
<polygon fill="black" stroke="black" points="97.75,-53.09 91.81,-44.32 90.98,-54.88 97.75,-53.09"/>
<text text-anchor="middle" x="85.5" y="-551.8" font-family="Times,serif" font-size="14.00">in:in/3.323</text>
</g>
<!-- 0&#45;&gt;0 -->
<g id="edge29" class="edge">
<title>0&#45;&gt;0</title>
<path fill="none" stroke="black" d="M79.13,-43.48C27.58,-230.43 29.71,-566 85.5,-566 140.26,-566 143.32,-242.77 94.69,-54.03"/>
<polygon fill="black" stroke="black" points="97.83,-53.24 91.87,-44.48 91.07,-55.04 97.83,-53.24"/>
<text text-anchor="middle" x="85.5" y="-569.8" font-family="Times,serif" font-size="14.00">lived:lived/3.594</text>
</g>
<!-- 0&#45;&gt;0 -->
<g id="edge30" class="edge">
<title>0&#45;&gt;0</title>
<path fill="none" stroke="black" d="M79.15,-43.31C25.58,-236.27 27.7,-584 85.5,-584 142.26,-584 145.32,-248.72 94.7,-53.91"/>
<polygon fill="black" stroke="black" points="97.82,-53.06 91.85,-44.31 91.06,-54.87 97.82,-53.06"/>
<text text-anchor="middle" x="85.5" y="-587.8" font-family="Times,serif" font-size="14.00">nearly:nearly/3.069</text>
</g>
<!-- 0&#45;&gt;0 -->
<g id="edge31" class="edge">
<title>0&#45;&gt;0</title>
<path fill="none" stroke="black" d="M79.11,-43.38C23.58,-242.41 25.71,-602 85.5,-602 144.27,-602 147.33,-254.59 94.69,-53.73"/>
<polygon fill="black" stroke="black" points="97.88,-53.12 91.89,-44.38 91.13,-54.95 97.88,-53.12"/>
<text text-anchor="middle" x="85.5" y="-605.8" font-family="Times,serif" font-size="14.00">one:one/1.949</text>
</g>
<!-- 0&#45;&gt;0 -->
<g id="edge32" class="edge">
<title>0&#45;&gt;0</title>
<path fill="none" stroke="black" d="M79.07,-43.43C21.58,-248.5 23.72,-620 85.5,-620 146.26,-620 149.34,-260.73 94.74,-53.77"/>
<polygon fill="black" stroke="black" points="97.93,-53.16 91.93,-44.43 91.17,-54.99 97.93,-53.16"/>
<text text-anchor="middle" x="85.5" y="-623.8" font-family="Times,serif" font-size="14.00">twenty:twenty/2.733</text>
</g>
<!-- 0&#45;&gt;0 -->
<g id="edge33" class="edge">
<title>0&#45;&gt;0</title>
<path fill="none" stroke="black" d="M79.05,-43.43C19.57,-254.54 21.72,-638 85.5,-638 148.25,-638 151.34,-266.8 94.77,-53.77"/>
<polygon fill="black" stroke="black" points="97.96,-53.15 91.95,-44.43 91.21,-55 97.96,-53.15"/>
<text text-anchor="middle" x="85.5" y="-641.8" font-family="Times,serif" font-size="14.00">world:world/1.217</text>
</g>
<!-- 0&#45;&gt;0 -->
<g id="edge34" class="edge">
<title>0&#45;&gt;0</title>
<path fill="none" stroke="black" d="M79.04,-43.4C17.57,-260.54 19.72,-656 85.5,-656 150.25,-656 153.34,-272.8 94.79,-53.7"/>
<polygon fill="black" stroke="black" points="97.98,-53.11 91.96,-44.4 91.23,-54.97 97.98,-53.11"/>
<text text-anchor="middle" x="85.5" y="-659.8" font-family="Times,serif" font-size="14.00">years:years/2.634</text>
</g>
<!-- 0&#45;&gt;0 -->
<g id="edge35" class="edge">
<title>0&#45;&gt;0</title>
<path fill="none" stroke="black" d="M79.05,-43.33C15.57,-266.49 17.72,-674 85.5,-674 152.22,-674 155.35,-279.12 94.88,-53.92"/>
<polygon fill="black" stroke="black" points="97.99,-53.04 91.95,-44.33 91.24,-54.9 97.99,-53.04"/>
<text text-anchor="middle" x="85.5" y="-677.8" font-family="Times,serif" font-size="14.00">distress:distress/2.139</text>
</g>
<!-- 0&#45;&gt;0 -->
<g id="edge36" class="edge">
<title>0&#45;&gt;0</title>
<path fill="none" stroke="black" d="M79.06,-43.22C13.57,-272.39 15.71,-692 85.5,-692 154.23,-692 157.35,-285 94.87,-53.76"/>
<polygon fill="black" stroke="black" points="97.99,-52.92 91.94,-44.22 91.25,-54.8 97.99,-52.92"/>
<text text-anchor="middle" x="85.5" y="-695.8" font-family="Times,serif" font-size="14.00">her:her/2.256</text>
</g>
<!-- 0&#45;&gt;0 -->
<g id="edge37" class="edge">
<title>0&#45;&gt;0</title>
<path fill="none" stroke="black" d="M78.98,-43.44C11.57,-278.68 13.74,-710 85.5,-710 156.21,-710 159.35,-291.23 94.94,-53.9"/>
<polygon fill="black" stroke="black" points="98.08,-53.13 92.02,-44.44 91.33,-55.01 98.08,-53.13"/>
<text text-anchor="middle" x="85.5" y="-713.8" font-family="Times,serif" font-size="14.00">little:little/3.694</text>
</g>
<!-- 0&#45;&gt;0 -->
<g id="edge38" class="edge">
<title>0&#45;&gt;0</title>
<path fill="none" stroke="black" d="M79.02,-43.27C9.57,-284.51 11.73,-728 85.5,-728 158.23,-728 161.36,-296.98 94.89,-53.64"/>
<polygon fill="black" stroke="black" points="98.05,-52.96 91.98,-44.27 91.31,-54.85 98.05,-52.96"/>
<text text-anchor="middle" x="85.5" y="-731.8" font-family="Times,serif" font-size="14.00">or:or/1.942</text>
</g>
<!-- 0&#45;&gt;0 -->
<g id="edge39" class="edge">
<title>0&#45;&gt;0</title>
<path fill="none" stroke="black" d="M78.95,-43.44C7.56,-290.74 9.75,-746 85.5,-746 160.22,-746 163.36,-303.11 94.93,-53.7"/>
<polygon fill="black" stroke="black" points="98.13,-53.12 92.05,-44.44 91.39,-55.02 98.13,-53.12"/>
<text text-anchor="middle" x="85.5" y="-749.8" font-family="Times,serif" font-size="14.00">very:very/4.345</text>
</g>
<!-- 0&#45;&gt;0 -->
<g id="edge40" class="edge">
<title>0&#45;&gt;0</title>
<path fill="none" stroke="black" d="M79.01,-43.21C5.56,-296.49 7.73,-764 85.5,-764 162.21,-764 165.36,-309.18 94.96,-53.72"/>
<polygon fill="black" stroke="black" points="98.08,-52.88 91.99,-44.21 91.35,-54.79 98.08,-52.88"/>
<text text-anchor="middle" x="85.5" y="-767.8" font-family="Times,serif" font-size="14.00">vex:vex/1.68</text>
</g>
<!-- 0&#45;&gt;0 -->
<g id="edge41" class="edge">
<title>0&#45;&gt;0</title>
<path fill="none" stroke="black" d="M78.96,-43.33C3.56,-302.66 5.74,-782 85.5,-782 164.21,-782 167.37,-315.22 94.98,-53.7"/>
<polygon fill="black" stroke="black" points="98.14,-53 92.04,-44.33 91.4,-54.91 98.14,-53"/>
<text text-anchor="middle" x="85.5" y="-785.8" font-family="Times,serif" font-size="14.00">affectionate:affectionate/1.779</text>
</g>
<!-- 0&#45;&gt;0 -->
<g id="edge42" class="edge">
<title>0&#45;&gt;0</title>
<path fill="none" stroke="black" d="M78.91,-43.44C1.56,-308.82 3.76,-800 85.5,-800 166.21,-800 169.37,-321.21 94.99,-53.65"/>
<polygon fill="black" stroke="black" points="98.19,-53.1 92.09,-44.44 91.46,-55.02 98.19,-53.1"/>
<text text-anchor="middle" x="85.5" y="-803.8" font-family="Times,serif" font-size="14.00">daughters:daughters/1.469</text>
</g>
</g>
</svg>
